<svg xmlns="http://www.w3.org/2000/svg" viewBox="0 0 64 64" role="img" aria-label="Taipei street tree icon">
  <rect width="64" height="64" rx="18" fill="#174b3f"/>
  <path fill="#fffdf7" d="M32 52c-1.9 0-3.4-1.5-3.4-3.4V35.8c-3.2 2.8-7 4.2-11.4 4.2C9.1 40 4 35.1 4 27.5 4 19.3 10.2 14 19.4 14c5.8 0 10.1 2.2 12.6 6.2C34.5 16.2 38.8 14 44.6 14 53.8 14 60 19.3 60 27.5 60 35.1 54.9 40 46.8 40c-4.4 0-8.2-1.4-11.4-4.2v12.8c0 1.9-1.5 3.4-3.4 3.4Z"/>
  <path fill="#bddc7a" d="M18.5 33.7c-5.1 0-8.1-2.4-8.1-6.2 0-4.2 3.5-6.9 9-6.9 4.6 0 8 2.1 9.7 6.1-2.4 4.6-5.8 7-10.6 7Zm27 0c-4.8 0-8.2-2.4-10.6-7 1.7-4 5.1-6.1 9.7-6.1 5.5 0 9 2.7 9 6.9 0 3.8-3 6.2-8.1 6.2Z"/>
</svg>
